HIERARCHY
ROOT Hips
{
  OFFSET 0 89.5177 0.535
  CHANNELS 6 Xposition Yposition Zposition Zrotation Xrotation Yrotation
  JOINT Spine
  {
    OFFSET 12.0259 -0.162855 1.69034e-005
    CHANNELS 3 Zrotation Xrotation Yrotation
    JOINT Spine1
    {
      OFFSET 15.3169 -0.0121922 0
      CHANNELS 3 Zrotation Xrotation Yrotation
      JOINT Spine2
      {
        OFFSET 15.3176 -0.0121908 0
        CHANNELS 3 Zrotation Xrotation Yrotation
        JOINT Neck
        {
          OFFSET 19.9142 1.56338 0
          CHANNELS 3 Zrotation Xrotation Yrotation
          JOINT Head
          {
            OFFSET 6.92651 0 0
            CHANNELS 3 Zrotation Xrotation Yrotation
            End Site
            {
              OFFSET 20.7666 0 0
            }
          }
          JOINT LeftShoulder
          {
            OFFSET -6.20654 0.708824 7.28219
            CHANNELS 3 Zrotation Xrotation Yrotation
            JOINT LeftArm
            {
              OFFSET 14.108 0 -1.52588e-005
              CHANNELS 3 Zrotation Xrotation Yrotation
              JOINT LeftForeArm
              {
                OFFSET 28.5802 0 0
                CHANNELS 3 Zrotation Xrotation Yrotation
                JOINT LeftHand
                {
                  OFFSET 27.092 0 0
                  CHANNELS 3 Zrotation Xrotation Yrotation
                  End Site
                  {
                    OFFSET 9.55928 -0.186424 0.145352
                  }
                }
              }
            }
          }
          JOINT RightShoulder
          {
            OFFSET -6.20654 0.708866 -7.28218
            CHANNELS 3 Zrotation Xrotation Yrotation
            JOINT RightArm
            {
              OFFSET 14.108 0 1.52588e-005
              CHANNELS 3 Zrotation Xrotation Yrotation
              JOINT RightForeArm
              {
                OFFSET 28.5802 0 0
                CHANNELS 3 Zrotation Xrotation Yrotation
                JOINT RightHand
                {
                  OFFSET 27.092 0 0
                  CHANNELS 3 Zrotation Xrotation Yrotation
                  End Site
                  {
                    OFFSET 9.55929 -0.186417 -0.145354
                  }
                }
              }
            }
          }
        }
      }
    }
  }
  JOINT LeftUpLeg
  {
    OFFSET 0.005 -0.535 8.837
    CHANNELS 3 Zrotation Xrotation Yrotation
    JOINT LeftLeg
    {
      OFFSET 39.9035 0 0
      CHANNELS 3 Zrotation Xrotation Yrotation
      JOINT LeftFoot
      {
        OFFSET 39.6689 0 0
        CHANNELS 3 Zrotation Xrotation Yrotation
        JOINT LeftToe
        {
          OFFSET 10.1624 13.6296 0
          CHANNELS 3 Zrotation Xrotation Yrotation
          End Site
          {
            OFFSET 8.38147 0 0
          }
        }
      }
    }
  }
  JOINT RightUpLeg
  {
    OFFSET 0.005 -0.535 -8.837
    CHANNELS 3 Zrotation Xrotation Yrotation
    JOINT RightLeg
    {
      OFFSET 39.9035 0 0
      CHANNELS 3 Zrotation Xrotation Yrotation
      JOINT RightFoot
      {
        OFFSET 39.6689 0 0
        CHANNELS 3 Zrotation Xrotation Yrotation
        JOINT RightToe
        {
          OFFSET 10.1624 13.6296 0
          CHANNELS 3 Zrotation Xrotation Yrotation
          End Site
          {
            OFFSET 8.38147 0 0
          }
        }
      }
    }
  }
}
MOTION
Frames:	7
Frame Time:	0.0333333
478.175 81.1959 -198.855 -149.255 77.3722 -117.635 -1.05955 1.10993 -1.86392 -2.08302 2.25403 -3.70788 -2.08302 2.25403 -3.70789 -8.30669e-012 -9.0191e-006 -5.27751e-005 28.2344 20.5213 -14.0601 -178.496 -5.35009 -74.2695 -6.13018 17.2883 64.3218 -63.6268 -1.19271e-015 -3.97569e-016 -58.3112 -55.2479 -58.7299 -178.091 6.07424 72.5183 24.1129 3.80853 -53.0267 -100.253 4.96962e-015 -1.59028e-015 -42.4641 40.136 38.0059 -48.7497 3.21289 172.471 -40.8996 0 -1.31695e-015 10.4999 15.1924 0.138234 90 -3.97569e-016 -3.18055e-015 -4.11591 -2.52318 -178.379 -38.9683 3.97569e-016 7.95139e-016 34.7491 -8.40888 -2.63099 90 3.97569e-016 -0 
477.78 80.9643 -203.482 -151.565 77.0403 -115.961 -1.13403 0.931002 -1.8074 -2.23857 1.8976 -3.59656 -2.23857 1.8976 -3.59657 -8.30748e-012 -9.0191e-006 -5.27751e-005 31.6273 27.5901 -18.3873 -178.137 -6.5015 -73.969 -5.0984 16.0297 64.0282 -65.638 7.95139e-016 -1.19271e-015 -55.491 -54.7394 -55.2379 -177.991 6.9736 73.8857 25.9681 7.49555 -54.9259 -110.796 -5.96354e-015 6.36111e-015 -40.6204 43.388 38.8846 -51.1213 3.44434 174.137 -38.6167 7.95139e-016 1.49089e-015 9.5203 17.4017 -2.97872 90 1.19271e-015 -0 -3.14699 -2.73863 -176.851 -31.3877 1.19271e-015 -1.19271e-015 36.2836 -5.9022 -5.50936 90 9.93923e-017 -0 
477.303 81.0131 -207.999 -154.614 77.2919 -115.098 -1.03464 0.82322 -1.39556 -2.04924 1.67173 -2.77629 -2.04924 1.67173 -2.7763 -8.30748e-012 -9.0191e-006 -5.27751e-005 34.7069 34.2719 -23.112 -177.841 -7.41975 -73.7276 -4.7594 14.5981 64.2511 -66.772 0 7.95139e-016 -51.3754 -52.5515 -50.2285 -177.912 7.99784 75.3167 24.007 10.7258 -56.2587 -117.329 5.56597e-015 -0 -40.489 43.9033 38.8833 -54.0947 2.428 178.118 -39.6783 7.95139e-016 4.47266e-016 14.782 22.9095 -14.047 90 1.59028e-015 3.18055e-015 -6.17584 -4.86113 -174.563 -31.6514 -1.03741e-015 1.41323e-016 36.5732 -4.38065 -5.73636 90 -1.48506e-017 -7.95139e-016 
476.892 81.3828 -212.583 -157.447 77.3915 -113.528 -0.927519 0.786189 -1.15777 -1.83922 1.59132 -2.3028 -1.83922 1.59132 -2.30281 -8.30748e-012 -9.0191e-006 -5.27751e-005 37.5563 39.0969 -27.2547 -177.753 -7.67812 -73.632 -5.32965 14.0898 64.5268 -67.7749 0 1.59028e-015 -46.2023 -49.0702 -43.6607 -177.958 8.39423 76.2756 21.0198 13.6102 -56.7818 -121.451 1.59028e-015 6.36111e-015 -40.5936 44.1845 38.9643 -55.3543 8.15262 -177.366 -41.4329 0 -4.96962e-016 16.1108 24.8271 -19.6913 90 6.36111e-015 -3.18055e-015 -11.8787 -6.2092 -173.58 -36.3544 -7.95139e-016 -0 35.601 -4.32987 -5.69437 90 -9.31803e-018 7.95139e-016 
476.505 82.3934 -216.862 -157.646 77.8602 -113.293 -0.721253 0.770834 -1.19676 -1.42644 1.55697 -2.38387 -1.42644 1.55697 -2.38388 -8.30828e-012 -9.0191e-006 -5.27751e-005 40.4213 41.9031 -30.3007 -177.847 -7.27005 -73.4542 -6.85612 14.7427 63.8384 -68.6053 7.95139e-016 1.19271e-015 -43.1093 -47.7675 -39.0162 -178.024 8.35373 76.6413 17.0511 15.3748 -57.2955 -123.813 7.95139e-015 3.18055e-015 -39.9555 43.4896 38.2901 -51.4351 8.26612 -177.422 -40.2868 0 -1.25483e-015 12.2042 19.4597 -11.8111 90 -7.95139e-016 -3.18055e-015 -15.0502 -5.88453 -173.339 -36.8264 5.96354e-016 -7.45443e-016 32.5631 -3.25193 -6.58209 90 -1.17419e-020 1.19271e-015 
476.135 83.7618 -220.761 -158.155 78.5756 -112.558 -0.589871 0.897682 -1.31044 -1.15927 1.80904 -2.61187 -1.15927 1.80904 -2.61188 -8.30748e-012 -9.0191e-006 -5.27751e-005 42.7651 43.1795 -31.6916 -178.014 -6.70358 -73.4536 -9.22857 16.1214 62.511 -69.2303 2.98177e-016 -9.93923e-017 -38.7919 -49.1258 -34.2408 -178.057 8.28543 76.7564 11.474 15.0673 -58.0682 -124.262 1.35174e-014 -0 -39.601 41.456 37.487 -45.6265 5.70686 -178.016 -38.8043 -1.59028e-015 -1.49089e-015 9.57359 13.4884 -8.84499 90 -1.83876e-015 7.95139e-016 -16.3398 -5.55114 -173.311 -34.4715 4.47266e-016 -5.46658e-016 28.4305 -2.06851 -6.90708 90 -1.0948e-020 -0 
476.012 84.967 -224.59 -160.272 79.1123 -109.485 -0.601103 1.11998 -1.57521 -1.17152 2.25647 -3.13932 -1.17152 2.25647 -3.13933 -8.30748e-012 -9.0191e-006 -5.27751e-005 44.5938 43.4547 -32.2809 -178.008 -6.71667 -73.4419 -11.8201 17.6557 60.6876 -70.3632 0 7.95139e-016 -33.7297 -50.9919 -28.9525 -178.033 8.43204 76.8177 4.38233 13.3974 -58.9675 -122.358 1.59028e-015 7.95139e-016 -39.8331 39.7527 35.7963 -39.8638 3.0788 -178.631 -38.0558 7.95139e-016 -1.98785e-016 8.49151 10.6125 -13.73 90 4.1869e-015 -0 -17.8798 -6.96495 -174.684 -32.4109 7.95139e-016 -0 24.6359 -1.77958 -6.75884 90 2.16709e-020 -9.93923e-017 
